Coordinates
version=1
nRows=9
nColumns=36
inDegrees=yes

Units are S.I. units (second, meters, Newtons, ...)
If the header above contains a line with 'inDegrees', this indicates whether rotational values are in degrees (yes) or radians (no).

endheader
time	pelvis_tilt	pelvis_list	pelvis_rotation	pelvis_tx	pelvis_ty	pelvis_tz	hip_flexion_r	hip_adduction_r	hip_rotation_r	knee_angle_r	knee_angle_r_beta	ankle_angle_r	subtalar_angle_r	mtp_angle_r	hip_flexion_l	hip_adduction_l	hip_rotation_l	knee_angle_l	knee_angle_l_beta	ankle_angle_l	subtalar_angle_l	mtp_angle_l	lumbar_extension	lumbar_bending	lumbar_rotation	arm_flex_r	arm_add_r	arm_rot_r	elbow_flex_r	pro_sup_r	arm_flex_l	arm_add_l	arm_rot_l	elbow_flex_l	pro_sup_l
      0.00000000	      5.38351840	     -1.73275471	     -8.03621079	      0.32064113	      0.93397334	      0.73264673	     17.40531360	      1.21355925	     -1.21702242	     48.29205420	      0.84285535	      3.70742710	    -14.92512717	     -7.13222399	     -4.07113111	      0.41324783	     -3.41158471	     13.76506337	      0.24024568	      8.07746880	     -8.79153145	     -7.13222399	    -12.13278790	     -0.11488458	      1.20052584	     -6.19029401	     -7.03036698	    -11.41406072	     26.61163011	     90.75571430	     13.27120238	    -11.26511441	      8.26870365	     22.49251469	     88.21509772
      0.01666670	      6.30268705	     -1.17426031	     -7.42155876	      0.31709719	      0.93032549	      0.73041702	     17.79454104	      0.27472792	     -2.15492032	     44.81680385	      0.78220079	      3.90313209	    -16.60354188	     -7.12556900	     -6.59075542	      1.12879625	     -4.46279366	     12.87298177	      0.22467592	      5.91922045	    -10.86473492	     -7.12556900	    -13.52752433	     -0.87359763	      0.73267071	     -5.98621576	     -6.54146270	    -11.56132421	     26.15440986	     89.75781453	     14.79692698	    -11.34713859	      7.96320254	     22.54865844	     87.21292718
      0.03333330	      6.54350816	     -0.47208227	     -7.40376449	      0.31424469	      0.92317201	      0.73169516	     18.79876417	     -0.25633984	     -2.13629544	     40.91488303	      0.71409942	      4.58383879	    -16.68037969	     -7.12507422	     -8.08425100	      1.76043048	     -5.82437573	     12.33407613	      0.21527024	      3.88776794	    -11.16204899	     -7.12507422	    -13.78284223	     -1.59510246	      0.70164348	     -6.19129391	     -6.38518352	    -11.50119024	     26.02268195	     89.99626867	     16.14654569	    -11.70968710	      7.98450322	     22.40535754	     87.46004920
      0.05000000	      6.21323911	     -0.28303618	     -7.04891675	      0.31000279	      0.91449832	      0.73246548	     20.45350848	     -0.32030534	     -2.50479697	     37.01377176	      0.64601219	      5.03671558	    -16.24788999	     -7.13141003	     -8.65498497	      1.71959847	     -6.68379062	     12.33550328	      0.21529515	      4.67487434	    -11.60587207	     -7.13141003	    -13.67823221	     -1.61113178	      0.65849888	     -6.69502693	     -6.31230143	    -11.46930032	     26.46729524	     89.82287520	     17.29914895	    -11.92787341	      8.05345938	     22.91509724	     87.37726350
      0.06666670	      5.67797609	     -0.14909440	     -6.47362885	      0.30566415	      0.90923855	      0.73221037	     21.96699818	     -0.42177875	     -3.06199495	     32.53836090	      0.56790153	      4.84134838	    -15.19179949	     -7.12199129	     -8.99241684	      1.74036897	     -6.83398589	     12.27400156	      0.21422174	      6.42890164	    -13.07837611	     -7.12199129	    -13.38662425	     -1.49170060	     -0.15042134	     -6.88878425	     -6.18114626	    -11.46456753	     27.08104454	     88.73420478	     18.15435643	    -12.29827502	      8.03754054	     23.32832569	     86.56656154
      0.08333330	      5.30385602	     -0.02051471	     -6.28652293	      0.30480860	      0.90646600	      0.73277535	     22.89656511	     -0.41792142	     -3.04800457	     27.82295371	      0.48560215	      4.33865699	    -14.20793075	     -7.11373585	     -9.80534471	      1.82929478	     -8.25218717	     11.76922777	      0.20541178	      9.98240835	    -11.60738791	     -7.11373585	    -13.14033366	     -1.62273768	      0.44633872	     -7.50561690	     -6.08845659	    -11.35448001	     27.06526836	     88.47543577	     19.37896850	    -12.22047027	      8.62129549	     24.12243268	     86.72306287
      0.10000000	      4.99737916	     -0.22338551	     -5.83003288	      0.30713026	      0.90413758	      0.73364894	     23.06926811	     -0.20926520	     -3.22564792	     22.80606667	      0.39804095	      3.96340032	    -13.39475772	     -7.10986303	    -10.85048777	      1.63008084	     -9.21244753	     11.14858766	      0.19457956	     12.93731861	    -10.88981349	     -7.10986303	    -12.75183885	     -1.19819493	     -0.10400969	     -7.92513993	     -6.07272741	    -11.39372418	     27.45545590	     88.14233498	     19.81393876	    -12.42437902	      8.94579155	     24.88609863	     86.64453744
      0.11666670	      4.82025725	     -0.47147646	     -5.31794264	      0.30908753	      0.90217840	      0.73442676	     22.89337152	     -0.00903468	     -3.37953143	     18.11279815	      0.31612796	      4.21805365	    -12.32522959	     -7.11699807	    -11.99361109	      1.39411055	     -9.63826055	     10.74880227	      0.18760199	     15.79903535	    -10.42648009	     -7.11699807	    -12.40304357	     -0.77544111	     -0.99939970	     -8.04268032	     -6.14121216	    -11.13139326	     27.33151648	     87.38101602	     20.03486507	    -12.64596889	      9.08959775	     25.69329915	     85.89091924
      0.13333330	      4.42927502	     -0.74705116	     -4.76270493	      0.30938204	      0.90145498	      0.73448093	     22.94175680	      0.26232598	     -3.41389324	     13.96208889	      0.24368442	      4.80162390	    -11.25197482	     -7.15447499	    -12.79241879	      1.04667057	     -9.59004414	     10.66141968	      0.18607688	     18.40442721	     -9.92605841	     -7.15447499	    -11.87262490	     -0.31055511	     -1.97439669	     -8.03927991	     -6.25723507	    -10.64065123	     26.97258068	     86.19352220	     20.08507506	    -12.83038245	      9.25069562	     26.73382676	     84.52012394
